<svg xmlns="http://www.w3.org/2000/svg" xmlns:svgjs="http://svgjs.com/svgjs" xmlns:xlink="http://www.w3.org/1999/xlink" style="enable-background:new 0 0 512 512" width="512" height="512" x="0" y="0" version="1.1" viewBox="0 0 512.008 512.008" xml:space="preserve"><circle cx="256.004" cy="256.004" r="256.004" fill="#55c3c7" shape="circle"/><g><g xmlns="http://www.w3.org/2000/svg"><g><path fill="#fff" d="M510.112,249.924c-4.032-5.845-100.928-143.253-254.101-143.253c-131.435,0-248.555,136.619-253.483,142.443 c-3.371,3.968-3.371,9.792,0,13.781c4.928,5.824,122.048,142.443,253.483,142.443s248.555-136.619,253.483-142.443 C512.587,259.204,512.864,253.892,510.112,249.924z M256.011,341.337c-47.061,0-85.333-38.272-85.333-85.333 s38.272-85.333,85.333-85.333s85.333,38.272,85.333,85.333S303.072,341.337,256.011,341.337z" data-original="#000000" transform="matrix(0.39999999999999997,0,0,0.39999999999999997,153.6022211551666,153.60269165039068)"/></g></g></g></svg>